<mxfile host="app.diagrams.net" modified="2024-05-22T18:58:47.996Z" agent="Mozilla/5.0 (Windows NT 10.0; Win64; x64) AppleWebKit/537.36 (KHTML, like Gecko) Chrome/125.0.0.0 Safari/537.36" etag="gttf1PtHiLGtoD_b_foG" version="24.4.6" type="github">
  <diagram name="Page-1" id="e7e014a7-5840-1c2e-5031-d8a46d1fe8dd">
    <mxGraphModel dx="1195" dy="655" grid="1" gridSize="10" guides="1" tooltips="1" connect="1" arrows="1" fold="1" page="1" pageScale="1" pageWidth="1169" pageHeight="826" background="none" math="0" shadow="0">
      <root>
        <mxCell id="0" />
        <mxCell id="1" parent="0" />
        <mxCell id="gMN6yCbDy_H_WEPsA0Ix-41" value="Gość" style="shape=umlActor;verticalLabelPosition=bottom;verticalAlign=top;html=1;" vertex="1" parent="1">
          <mxGeometry x="30" y="80" width="30" height="60" as="geometry" />
        </mxCell>
        <mxCell id="gMN6yCbDy_H_WEPsA0Ix-71" style="edgeStyle=orthogonalEdgeStyle;rounded=0;orthogonalLoop=1;jettySize=auto;html=1;exitX=0.5;exitY=0.5;exitDx=0;exitDy=0;exitPerimeter=0;" edge="1" parent="1" source="gMN6yCbDy_H_WEPsA0Ix-42">
          <mxGeometry relative="1" as="geometry">
            <mxPoint x="45" y="170" as="targetPoint" />
          </mxGeometry>
        </mxCell>
        <mxCell id="gMN6yCbDy_H_WEPsA0Ix-42" value="Uczestnik aukcji" style="shape=umlActor;verticalLabelPosition=bottom;verticalAlign=top;html=1;" vertex="1" parent="1">
          <mxGeometry x="30" y="260" width="30" height="60" as="geometry" />
        </mxCell>
        <mxCell id="gMN6yCbDy_H_WEPsA0Ix-43" value="System" style="shape=umlActor;verticalLabelPosition=bottom;verticalAlign=top;html=1;" vertex="1" parent="1">
          <mxGeometry x="920" y="660" width="30" height="60" as="geometry" />
        </mxCell>
        <mxCell id="gMN6yCbDy_H_WEPsA0Ix-45" value="Przeglądanie aukcji" style="ellipse;whiteSpace=wrap;html=1;" vertex="1" parent="1">
          <mxGeometry x="640" y="20" width="140" height="70" as="geometry" />
        </mxCell>
        <mxCell id="gMN6yCbDy_H_WEPsA0Ix-46" value="Licytacja produktu" style="ellipse;whiteSpace=wrap;html=1;" vertex="1" parent="1">
          <mxGeometry x="480" y="260" width="140" height="70" as="geometry" />
        </mxCell>
        <mxCell id="gMN6yCbDy_H_WEPsA0Ix-47" value="Zakup produktu" style="ellipse;whiteSpace=wrap;html=1;" vertex="1" parent="1">
          <mxGeometry x="480" y="380" width="140" height="70" as="geometry" />
        </mxCell>
        <mxCell id="gMN6yCbDy_H_WEPsA0Ix-48" value="Wystawienie produktu na aukcję" style="ellipse;whiteSpace=wrap;html=1;" vertex="1" parent="1">
          <mxGeometry x="150" y="370" width="150" height="80" as="geometry" />
        </mxCell>
        <mxCell id="gMN6yCbDy_H_WEPsA0Ix-49" value="Rejestracja" style="ellipse;whiteSpace=wrap;html=1;" vertex="1" parent="1">
          <mxGeometry x="190" y="80" width="140" height="70" as="geometry" />
        </mxCell>
        <mxCell id="gMN6yCbDy_H_WEPsA0Ix-50" value="Ocena transakcji" style="ellipse;whiteSpace=wrap;html=1;" vertex="1" parent="1">
          <mxGeometry x="480" y="510" width="140" height="70" as="geometry" />
        </mxCell>
        <mxCell id="gMN6yCbDy_H_WEPsA0Ix-69" value="" style="endArrow=none;html=1;rounded=0;" edge="1" parent="1">
          <mxGeometry width="50" height="50" relative="1" as="geometry">
            <mxPoint x="100" y="320" as="sourcePoint" />
            <mxPoint x="150" y="375" as="targetPoint" />
            <Array as="points">
              <mxPoint x="150" y="375" />
            </Array>
          </mxGeometry>
        </mxCell>
        <mxCell id="gMN6yCbDy_H_WEPsA0Ix-70" value="Zaloguj" style="ellipse;whiteSpace=wrap;html=1;" vertex="1" parent="1">
          <mxGeometry x="470" y="130" width="140" height="70" as="geometry" />
        </mxCell>
      </root>
    </mxGraphModel>
  </diagram>
</mxfile>
